<svg xmlns="http://www.w3.org/2000/svg" height="832" preserveAspectRatio="none" style="display: block;" version="1.1" viewBox="0 0 2048 1331" width="1280">
<path d="M 687.875 576.384 C 703.031 575.792 721.004 576.797 736.504 576.574 C 747.193 576.42 768.356 575.665 778.181 576.897 C 744.75 628.062 709.062 680.013 675.092 731.005 L 638.284 786.184 C 626.615 803.542 614.838 821.85 600.355 836.556 C 575.343 861.883 536.779 863.215 511.585 837.33 C 494.064 819.327 493.371 799.794 493.904 776.2 C 494.11 767.056 494.049 757.343 494.138 748.21 C 476.837 748.019 432.564 747.464 416.844 748.929 C 416.388 779.199 422.163 815.926 399.391 837.305 C 376.342 858.944 355.442 856.508 327.074 856.183 L 327.143 807.75 L 326.962 700.165 C 326.88 679.775 326.659 659.281 326.976 639.009 C 327.412 611.119 346.543 587.412 373.154 579.886 C 387.762 575.755 401.738 576.499 416.681 577.122 C 417.312 607.498 416.548 639.838 416.821 670.585 C 429.51 670.886 443.157 670.199 456 670.333 C 468.418 670.463 481.321 670.939 493.661 670.487 C 494.016 641.499 491.219 616.521 514.749 594.288 C 535.783 574.415 557.922 576.519 584.445 577.25 C 584.227 627.575 584.406 677.901 584.981 728.224 C 590.527 721.016 600.168 704.798 605.719 696.513 L 666.193 604.832 C 671.441 596.89 678.726 585.339 684.81 577.561 C 686.026 577.094 687.048 576.702 687.875 576.384 z" fill="rgb(126,128,134)" transform="translate(0,0)"></path>
<path d="M 426.8 396.312 C 429.267 396.272 432.183 395.833 434.59 396.24 C 437.599 396.748 469.527 442.971 474.133 449.359 C 474.02 432.023 473.983 414.304 474.143 397.116 C 474.151 396.29 482.133 395.258 481.788 397.944 C 480.705 406.392 483.98 457.585 480.825 461.537 C 479.569 461.45 474.104 461.219 473.939 461.03 C 464.71 450.498 440.977 417.204 435.015 407.207 C 434.26 418.423 434.939 447.341 434.269 459.825 C 434.213 460.877 427.372 461.034 427.363 460.325 C 427.117 439.164 427.124 417.618 426.8 396.312 z" fill="rgb(182,181,181)" transform="translate(0,0)"></path>
<path d="M 578.986 478 C 589.276 489.192 606.654 515.438 618.226 530.201 C 618.031 520.252 617.439 491.14 618.654 479.838 C 618.736 479.079 625.078 479.246 625.747 480.109 C 626.077 500.742 625.987 521.738 625.745 542.425 C 625.731 543.607 617.511 543.395 617.036 542.723 C 604.703 525.274 592.041 507.838 579.666 490.378 C 579.615 507.59 579.498 525.738 578.753 542.674 C 578.732 543.165 572.852 543.048 572.787 542.449 C 570.641 522.752 573.823 499.047 570.801 479.611 C 572.821 478.764 576.407 478.522 578.986 478 z" fill="rgb(182,181,181)" fill-opacity="0.988235" transform="translate(0,0)"></path>
<path d="M 589.587 396.522 C 597.044 396.266 609.872 395.529 617.283 397.369 C 618.479 397.666 617.838 403.395 617.176 403.457 C 605.353 404.552 592.903 403.762 580.836 404.102 L 580.911 424.811 C 591.115 425.339 601.433 424.747 611.384 425.669 C 611.909 425.718 612.268 431.637 611.619 431.65 C 601.405 431.852 591.232 431.712 580.935 432.128 L 580.836 450.25 C 580.959 456.233 613.403 450.623 618.886 453.234 C 619.918 453.725 619.467 458.641 618.695 458.742 C 604.137 460.64 587.813 459.768 572.737 460.017 C 573.012 439.223 572.486 417.742 572.452 396.959 C 578.127 396.73 584.129 396.776 589.587 396.522 z" fill="rgb(182,181,181)" transform="translate(0,0)"></path>
<path d="M 702.554 535.478 C 692.88 541.753 684.145 545.934 672.501 542.975 C 653.636 538.181 645.18 524.344 647.403 505.36 C 650.485 479.049 682.703 472.163 701.566 486.452 C 702.259 486.988 699.025 491.93 698.68 492.594 C 698.419 492.732 698.6 492.688 698.068 492.614 L 698.626 492.737 C 695.459 492.146 694.728 490.475 691.489 488.956 C 683.778 485.341 671.4 485.996 664.405 490.817 C 659.82 493.977 655.579 500.348 655.1 505.995 C 654.41 514.141 654.71 521.121 660.377 527.647 C 664.554 532.458 669.939 534.51 676.494 535.161 C 680.915 535.601 689.337 535.161 693.679 533.627 C 694.488 533.341 693.912 524.475 693.857 522.895 L 693.88 518.971 L 693.997 513.023 C 695.914 513.061 702.088 512.924 702.417 514.176 C 703.154 516.988 702.673 532.669 702.554 535.478 z" fill="rgb(182,181,181)" transform="translate(0,0)"></path>
<path d="M 350.191 396.3 C 355.9 395.878 371.393 396.315 375.68 402.499 C 376.393 403.526 371.541 407.945 371.319 407.851 C 363.26 404.461 355.449 400.396 346.393 404.687 C 334.627 411.839 342.129 419.752 351.445 422.295 L 354.987 423.249 C 369.707 427.344 383.362 434.912 372.674 453.703 C 369.477 459.325 362.176 460.858 356.031 461.624 C 350.129 461.001 331.493 456.414 331.321 452.336 C 330.722 438.131 349.572 458.832 360.456 452.715 C 368.337 448.286 369.237 447.711 367.621 439.045 C 364.499 431.732 349.761 431.574 345.149 429.126 C 324.078 417.943 330.078 401.776 350.191 396.3 z" fill="rgb(182,181,181)" transform="translate(0,0)"></path>
<path d="M 528.51 396.218 C 532.951 395.912 559.34 397.915 554.917 406.471 C 551.66 412.771 540.873 400.418 531.998 403.011 C 526.609 403.432 518.068 406.85 514.821 411.875 C 500.273 434.388 513.574 457.361 541.451 452.68 C 544.699 451.316 548.384 449.064 551.511 448.027 C 552.835 447.588 558.494 451.632 554.579 453.992 C 541.87 461.544 528.847 463.591 515.613 455.691 C 504.786 449.447 500.029 438.592 500.659 426.25 C 501.527 409.261 512.972 399.735 528.51 396.218 z" fill="rgb(182,181,181)" transform="translate(0,0)"></path>
<path d="M 492.226 479.154 C 496.158 478.839 522.566 478.327 521.407 487.282 C 518.796 494.287 514.143 488.72 511.006 487.707 C 469.896 474.434 460.054 539.23 506.858 535.321 C 508.812 534.494 517.844 530.394 517.969 530.458 C 526.08 534.654 516.942 540.071 511.421 541.695 C 468.316 554.376 449.41 492.229 492.226 479.154 z" fill="rgb(182,181,181)" fill-opacity="0.988235" transform="translate(0,0)"></path>
<path d="M 409.864 528.14 C 408.819 530.794 404.89 542.315 401.046 542.372 C 399.79 542.39 395.777 543.423 395.157 542.317 C 403.064 521.951 415.67 500.6 423.448 479.789 C 423.997 478.319 431.353 478.308 431.596 478.792 C 438.051 491.65 444.064 506.275 449.435 519.782 C 447.286 520.717 444.479 520.09 441.902 520.661 C 437.516 509.168 433.213 498.278 428.184 486.987 C 423.084 498.373 418.219 509.416 413.349 520.89 C 422.6 521.169 431.858 521.222 441.112 521.048 C 442.042 521.723 442.979 522.387 443.922 523.043 C 441.994 524.145 427.684 527.599 424.98 527.985 C 420.024 528.156 414.838 528.128 409.864 528.14 z" fill="rgb(182,181,181)" fill-opacity="0.984314" transform="translate(0,0)"></path>
<path d="M 334.806 478.879 C 344.757 478.632 356.153 478.305 365.988 479.396 C 384.232 481.421 389.631 500.093 380.936 514.208 C 377.659 513.281 377.55 512.908 375.45 509.99 C 385.514 482.632 359.74 484.535 342.142 486.106 C 342.383 495.729 342.36 505.402 342.391 515.038 L 342.335 515.781 C 341.708 523.332 340.672 525.903 342.457 533.593 C 342.828 535.617 343.512 539.895 342.249 541.72 C 341.624 542.622 340.741 542.801 339.713 543.012 C 338.591 543.243 337.018 543.348 336.07 542.564 C 335.037 541.71 334.959 485.491 334.806 478.879 z" fill="rgb(182,181,181)" transform="translate(0,0)"></path>
<path d="M 539.914 479.153 C 541.468 479.121 546.719 478.807 547.688 479.372 C 548.444 480.929 547.423 536.288 547.557 542.491 C 545.946 542.712 542.053 543.468 540.708 542.433 C 539.636 541.608 540.234 485.79 539.914 479.153 z" fill="rgb(182,181,181)" fill-opacity="0.984314" transform="translate(0,0)"></path>
<path d="M 693.857 522.895 C 690.482 523.152 689.403 524.845 685.559 525.641 C 677.236 527.363 675.747 526.164 668.465 524.58 C 661.98 523.169 662.758 524.376 660.959 517.484 C 659.411 511.55 662.126 510.362 663.497 505.055 C 663.683 497.912 666.91 495.723 674.043 495.469 C 683.927 495.117 663.924 504.354 682.795 504.469 C 690.267 504.515 692.025 506.705 693.184 513.114 C 692.965 513.42 692.745 513.726 692.525 514.032 L 692.442 513.705 C 688.681 511.396 672.065 506.896 669.036 511.535 C 660.266 524.967 674.03 522.008 681.828 521.491 C 690.091 521.593 688.601 521.014 692.552 517.883 L 692.523 517.758 C 693.335 518.127 693.127 518.073 693.88 518.971 L 693.857 522.895 z" fill="rgb(254,254,254)" fill-opacity="0.105882" transform="translate(0,0)"></path>
<path d="M 396.155 445.202 C 395.83 429.702 395.633 412.675 396.451 397.403 C 396.479 396.868 402.419 395.477 404.086 397.41 C 404.247 402.973 403.915 459.803 403.482 460.143 C 402.285 461.083 398.229 460.287 396.706 460.176 C 397.097 457.902 397.246 455.623 397.557 453.342 L 397.545 453.34 C 397.864 454.101 398.199 454.9 398.523 455.661 L 398.497 455.642 C 400.148 453.271 401.948 445.154 398.868 443.894 C 397.53 444.665 398.605 447.151 396.155 445.202 z" fill="rgb(182,181,181)" fill-opacity="0.980392" transform="translate(0,0)"></path>
<path d="M 375.45 509.99 C 377.55 512.908 377.659 513.281 380.936 514.208 C 377.426 518.561 375.565 519.074 371.038 521.793 C 368.235 522.387 367.845 522.517 364.951 522.446 C 362.211 521.818 359.848 521.77 357.064 521.838 C 340.272 522.247 343.253 518.177 342.457 533.593 C 340.672 525.903 341.708 523.332 342.335 515.781 L 342.391 515.038 C 350.44 515.22 361.613 515.988 369.358 513.608 C 371.527 512.941 373.263 510.925 375.45 509.99 z" fill="rgb(182,181,181)" fill-opacity="0.972549" transform="translate(0,0)"></path>
<path d="M 693.88 518.971 C 693.127 518.073 693.335 518.127 692.523 517.758 L 692.552 517.883 C 688.601 521.014 690.091 521.593 681.828 521.491 C 674.03 522.008 660.266 524.967 669.036 511.535 C 672.065 506.896 688.681 511.396 692.442 513.705 L 692.525 514.032 C 692.745 513.726 692.965 513.42 693.184 513.114 L 693.997 513.023 L 693.88 518.971 z" fill="rgb(254,254,254)" fill-opacity="0.262745" transform="translate(0,0)"></path>
<path d="M 371.038 521.793 C 374.717 526.237 391.903 548.409 375.68 542.463 C 374.694 542.102 365.755 524.656 364.951 522.446 C 367.845 522.517 368.235 522.387 371.038 521.793 z" fill="rgb(182,181,181)" transform="translate(0,0)"></path>
<path d="M 449.435 519.782 C 450.799 521.863 459.071 540.078 458.986 542.29 C 458.317 543.298 452.465 543.19 451.536 542.386 C 450.378 541.385 449.957 537.774 449.486 536.193 C 449.212 531.34 450.009 523.929 443.922 523.043 C 442.979 522.387 442.042 521.723 441.112 521.048 L 441.902 520.661 C 444.479 520.09 447.286 520.717 449.435 519.782 z" fill="rgb(182,181,181)" fill-opacity="0.968627" transform="translate(0,0)"></path>
<path d="M 570.801 479.611 C 568.965 479.716 561.341 477.15 560.78 476.556 L 560.961 476.26 C 563.096 475.494 568.185 475.762 568.694 475.606 C 571.299 470.908 571.125 461.32 563.995 463.51 C 563.394 463.694 559.597 464.429 559.422 463.449 C 560.659 461.944 568.037 458.596 570.426 460.311 C 577.552 465.427 570.541 477.273 570.601 477.437 C 571.355 477.744 577.213 477.8 578.986 478 C 576.407 478.522 572.821 478.764 570.801 479.611 z" fill="rgb(254,254,254)" fill-opacity="0.0470588" transform="translate(0,0)"></path>
<path d="M 424.98 527.985 C 427.684 527.599 441.994 524.145 443.922 523.043 C 450.009 523.929 449.212 531.34 449.486 536.193 C 448.05 533.519 446.644 530.8 445.108 528.185 C 438.462 528.132 431.591 528.2 424.98 527.985 z" fill="rgb(182,181,181)" fill-opacity="0.870588" transform="translate(0,0)"></path>
<path d="M 396.155 445.202 C 398.605 447.151 397.53 444.665 398.868 443.894 C 401.948 445.154 400.148 453.271 398.497 455.642 L 398.523 455.661 C 398.199 454.9 397.864 454.101 397.545 453.34 L 397.557 453.342 C 397.246 455.623 397.097 457.902 396.706 460.176 C 395.706 456.033 396.081 449.7 396.155 445.202 z" fill="rgb(182,181,181)" fill-opacity="0.909804" transform="translate(0,0)"></path>
<path d="M 1718.98 0 L 1807.6 0 C 1782.72 36.7013 1757.43 73.1162 1731.71 109.238 L 1644.69 234.768 L 1558.98 358.326 C 1549.89 371.201 1540.91 384.711 1532.12 397.841 C 1529.7 401.444 1526.89 398.512 1523.82 402.131 C 1526.96 413.244 1569.97 422.755 1583.07 431.194 L 1585.01 432.297 C 1586.27 433.214 1586.61 433.454 1588.05 434.161 C 1596.56 429.44 1597.28 433.931 1603.82 437.886 C 1606 438.755 1607.86 440.841 1611.81 442.66 C 1617.01 449.354 1621.94 446.346 1621.81 455.872 C 1622.36 456.628 1636.6 468.247 1637.4 468.685 C 1638.44 468.445 1638.03 466.458 1638.31 465.592 C 1638.91 465.085 1639.95 464.793 1640.75 464.486 L 1643.12 465.132 C 1642.63 465.832 1639.86 469.245 1640.33 469.856 C 1648.24 480.167 1657.75 489.458 1666 499.718 C 1781.48 643.356 1714.65 846.248 1545.44 907.266 C 1490.33 927.204 1430.24 928.664 1374.23 911.427 C 1365.32 908.713 1356.79 906.209 1347.28 902.07 C 1335.97 897.152 1320.76 887.669 1308.87 883.421 C 1307.84 883.776 1306.97 884.077 1306.25 884.324 C 1304.85 886.296 1304.55 886.558 1303.92 888.986 C 1302.1 887.046 1298.04 884.344 1297.58 882.449 C 1297.88 881.616 1297.67 881.867 1298.28 881.334 C 1298.33 881.298 1298.38 881.262 1298.44 881.225 C 1298.55 881.106 1298.67 880.987 1298.79 880.868 C 1300.25 879.928 1302.44 880.68 1304.01 880.653 C 1304.85 880.639 1305.59 881.023 1306.22 880.559 C 1305.38 879.148 1288.02 867.221 1286.05 867.708 C 1284.17 863.757 1261.85 844.208 1256.44 838.369 C 1238.63 819.136 1224.37 800.362 1212.32 776.927 C 1209.65 775.994 1210.79 776.059 1207.54 777.589 C 1201.34 787.898 1223.63 817.007 1229.78 826.081 C 1201.29 873.575 1158.5 931.158 1126.83 977.765 L 884.797 1331 L 796.967 1331 C 802.31 1324.07 809.248 1312.8 814.319 1305.3 C 823.797 1291.43 833.362 1277.63 843.014 1263.89 L 968.895 1080.41 C 1019.85 1007.07 1070.36 933.416 1120.43 859.464 C 1143.27 826.148 1167.01 793.341 1189.04 759.493 L 1203.59 757.706 C 1200.13 747.801 1197.06 737.763 1194.39 727.615 C 1176.81 661.209 1186.6 590.525 1221.58 531.4 C 1222.67 529.843 1223.59 528.561 1224.58 526.935 C 1231.8 515.359 1238.01 508.161 1245.52 497.621 C 1248.74 493.059 1250.01 492.545 1253.01 488.872 C 1254.89 486.676 1256.81 484.812 1258.72 482.689 C 1316.56 423.997 1369.12 408.386 1448.34 398.71 C 1448.45 396.205 1448.88 394.476 1449.39 392.016 C 1449.65 394.485 1449.97 396.948 1450.34 399.404 C 1480.97 400.441 1493.52 401.785 1523.69 408.429 L 1511.31 401.058 C 1516.85 400.141 1526.08 400.002 1531.94 399.741 C 1509.57 392.394 1474.22 389.063 1450.84 388.623 C 1458.26 376.63 1471.3 359.327 1479.67 346.741 C 1511.84 298.398 1546.04 251.03 1578.99 203.247 L 1673.4 65.8305 C 1688.02 44.6172 1703.63 20.3969 1718.98 0 z M 1220.65 735.681 C 1228.25 743.25 1221.65 740.603 1225.2 747.976 C 1227.84 752.559 1236.29 772.059 1238.97 774.796 C 1237.29 780.881 1269.83 820.078 1276.54 824.898 L 1276.86 825.131 L 1277.48 825.916 C 1288.82 839.192 1314.16 858.203 1329.75 865.751 C 1332.4 868.99 1357.38 880.494 1361.7 880.631 L 1362.57 881.095 C 1368.82 882.896 1370.92 881.379 1376.24 886.123 C 1387.12 889.602 1401.21 894.234 1412.7 894.813 C 1416.44 895.976 1420.07 896.464 1423.95 897.318 C 1438.47 899.165 1473.86 900.653 1487.76 896.323 C 1538.03 893.698 1593.92 861.516 1629.76 826.884 C 1634.58 822.249 1639.9 816.542 1643.8 811.151 C 1647.44 806.691 1647.37 808.413 1646 804.563 C 1645.51 803.183 1648.17 800.644 1650.01 801.798 C 1650.78 802.28 1654.07 798.32 1654.98 797.294 C 1657.51 793.606 1658.2 792.854 1660.47 788.882 C 1660.91 787.268 1661.79 785.874 1662.51 784.37 C 1663.04 783.253 1661.84 782.101 1661.96 781.013 C 1663.29 779.335 1664.74 779.765 1665.02 779.481 C 1668.84 775.627 1673.06 767.319 1675.11 762.475 C 1689.39 732.809 1697.8 701.889 1698.1 668.79 C 1698.5 662.987 1698.23 657.686 1698.01 651.893 C 1698.27 648.295 1697.96 644.355 1697.85 640.704 C 1697.56 635.379 1696.43 623.984 1694.45 619.46 C 1694.17 616.945 1694.01 614.273 1693.83 611.74 C 1693.04 609.448 1692.54 608.617 1691.46 606.458 L 1690.53 607.072 L 1690.35 606.994 C 1689.34 604.787 1687.74 598.728 1686.72 595.793 C 1683.97 588.316 1688.85 588.925 1683.94 580.745 C 1681.78 571.555 1672.83 554.051 1667.95 545.631 C 1666.22 542.969 1665.72 541.116 1663.53 538.627 C 1648.71 534.569 1660.22 540.32 1659.64 550.993 C 1660.55 553.521 1664.34 560.126 1665.82 562.891 C 1666.49 564.678 1666.47 564.557 1667.48 566.165 C 1670.48 572.962 1673.53 579.527 1676.49 586.429 C 1676.52 590.088 1679.49 595.05 1680.69 600.144 C 1683.31 607.421 1684.21 614.17 1685.61 621.743 C 1686.06 623.793 1686.61 625.589 1687.13 627.604 C 1686.88 639.833 1689.83 657.094 1689.36 672.654 C 1686.06 704.206 1681.48 730.975 1666.27 759.639 C 1665.85 760.607 1664.63 766.058 1665.24 765.02 C 1662.31 769.977 1658.03 771.052 1657.54 778.55 C 1657.35 781.431 1652.5 784.091 1649.88 787.649 C 1648.09 789.551 1645.12 793.847 1643.38 796.141 C 1640.96 801.514 1643.79 803.784 1636.7 804.87 C 1634.08 807.54 1630.48 810.998 1628.56 814.151 C 1587.23 854.551 1563.66 868.146 1508.39 884.305 C 1496.01 886.37 1484.98 888.377 1472.43 889.333 C 1470.36 889.268 1447.09 890.062 1444.99 890.204 C 1438.52 889.972 1433.09 888.928 1426.97 888.934 C 1403.14 885.979 1392.89 881.812 1371.18 875.641 C 1367.97 873.804 1361.73 871.66 1358.12 870.482 C 1356.07 869.122 1354.78 868.765 1352.56 867.8 C 1350.06 865.588 1346.24 864.315 1343.1 862.734 L 1342.41 862.377 C 1337.1 859.089 1330.81 855.878 1325.07 852.337 C 1313.07 844.84 1306.97 839.297 1296.41 831.029 L 1295.86 830.606 C 1293.93 828.606 1289.45 824.127 1287.21 822.732 C 1284.49 819.573 1282.19 817.314 1279.29 814.357 C 1277.98 812.833 1276.47 811.099 1275.01 809.747 C 1273.68 808.35 1272.44 806.997 1271.06 805.651 C 1267.8 801.76 1265.16 798.279 1262.09 794.307 C 1260.18 791.518 1256.73 786.42 1254.74 783.999 C 1252.31 780.439 1249.99 776.813 1247.76 773.125 C 1242.21 762.663 1237.95 754.366 1233.11 743.492 C 1231.94 739.878 1230.56 736.59 1229.57 732.899 C 1210.94 677.484 1214.93 616.957 1240.67 564.468 C 1268.24 508.367 1317.08 465.607 1376.33 445.703 C 1406.97 435.492 1439.27 431.146 1471.52 432.892 C 1476.13 433.108 1486.83 434.877 1488.78 431.664 L 1488.82 428.023 C 1477.64 420.181 1424.68 424.904 1410.11 427.214 C 1282.05 447.512 1188.99 570.342 1211.58 699.383 C 1213.53 710.56 1219.39 726.046 1220.65 735.681 z M 1557.89 524.904 C 1498.78 522.882 1437.76 525.723 1378.48 524.305 C 1371.46 524.136 1363.77 524.192 1356.75 524.404 L 1353.88 525.202 C 1351.08 530.908 1352.33 571.885 1352.9 580.159 C 1383.95 580.984 1414.86 580.095 1445.88 580.206 C 1459.02 580.253 1476.61 579.637 1489.27 580.762 C 1480.93 597.768 1461.39 627.205 1450.66 644.784 L 1403.57 723.074 C 1387.64 749.08 1367.13 781.416 1352.81 807.971 C 1374.29 808.238 1395.77 808.329 1417.25 808.243 C 1422.5 805.968 1545.44 595.536 1556.42 577.394 C 1558.73 573.57 1557.39 535.087 1557.89 524.904 z M 1512.04 439.814 C 1526.7 444.344 1535.36 447.098 1549.89 452.552 C 1551.8 453.598 1556.14 455.709 1558.15 456.45 C 1565.86 452.359 1564.68 456.019 1572.11 458.998 C 1575.39 460.086 1590.01 471.362 1594.18 472.84 C 1600.97 475.253 1601.85 480.788 1606.1 474.494 C 1602.18 471.181 1586.87 460.833 1582.16 459.057 C 1581.83 458.151 1581.03 457.495 1580.08 457.339 C 1579.02 456.612 1569.37 451.635 1567.59 450.763 C 1560.05 447.611 1552.87 443.257 1544.82 440.606 C 1540.79 439.047 1533.04 436.136 1529.16 435.087 C 1524.19 433.654 1519.26 432.114 1514.36 430.469 C 1499.48 428.037 1500.34 423.921 1491.9 435.725 C 1496.37 435.977 1507.59 438.629 1512.04 439.814 z" fill="rgb(126,128,134)" transform="translate(0,0)"></path>
<path d="M 1588.05 434.161 C 1596.56 429.44 1597.28 433.931 1603.82 437.886 C 1606 438.755 1607.86 440.841 1611.81 442.66 C 1617.01 449.354 1621.94 446.346 1621.81 455.872 C 1609.98 448.324 1601.41 441.064 1588.05 434.161 z" fill="rgb(254,254,254)" transform="translate(0,0)"></path>
<path d="M 1628.56 814.151 C 1626.27 823.3 1624.27 819.033 1620.63 824.071 C 1617.98 827.729 1627.78 826.944 1629.76 826.884 C 1593.92 861.516 1538.03 893.698 1487.76 896.323 C 1497.18 891.259 1513.95 888.931 1516.33 885.853 L 1513.78 885.284 L 1515.87 886.02 C 1512.63 884.414 1513.35 884.992 1509.07 885.494 L 1508.39 884.305 C 1563.66 868.146 1587.23 854.551 1628.56 814.151 z" fill="rgb(254,254,254)" fill-opacity="0.984314" transform="translate(0,0)"></path>
<path d="M 1558.15 456.45 C 1565.86 452.359 1564.68 456.019 1572.11 458.998 C 1575.39 460.086 1590.01 471.362 1594.18 472.84 C 1600.97 475.253 1601.85 480.788 1606.1 474.494 C 1625.6 487.83 1652.48 517.655 1663.53 538.627 C 1648.71 534.569 1660.22 540.32 1659.64 550.993 C 1632.92 506.592 1604.32 479.956 1558.15 456.45 z" fill="rgb(254,254,254)" transform="translate(0,0)"></path>
<path d="M 1277.48 825.916 C 1288.48 827.541 1286.29 834.477 1295.86 830.606 L 1296.41 831.029 C 1306.97 839.297 1313.07 844.84 1325.07 852.337 C 1319.1 861.458 1324.32 856.18 1329.75 865.751 C 1314.16 858.203 1288.82 839.192 1277.48 825.916 z" fill="rgb(254,254,254)" fill-opacity="0.984314" transform="translate(0,0)"></path>
<path d="M 1371.18 875.641 C 1392.89 881.812 1403.14 885.979 1426.97 888.934 C 1423.97 897.962 1421.07 894.788 1412.7 894.813 C 1401.21 894.234 1387.12 889.602 1376.24 886.123 C 1383.05 877.15 1374.99 881.083 1371.18 875.641 z" fill="rgb(254,254,254)" fill-opacity="0.0117647" transform="translate(0,0)"></path>
<path d="M 1472.43 889.333 C 1484.98 888.377 1496.01 886.37 1508.39 884.305 L 1509.07 885.494 C 1513.35 884.992 1512.63 884.414 1515.87 886.02 L 1513.78 885.284 L 1516.33 885.853 C 1513.95 888.931 1497.18 891.259 1487.76 896.323 C 1473.86 900.653 1438.47 899.165 1423.95 897.318 C 1433.81 895.557 1437.1 895.666 1447.36 896.079 C 1453.28 898.319 1470.81 895.388 1477.49 894.261 C 1477.57 894.247 1482.65 893.077 1482.45 893.287 C 1483.77 891.916 1490.07 892.872 1490.47 892.254 L 1490.39 892.107 C 1485.71 889.637 1479.22 894.228 1472.43 889.333 z" fill="rgb(254,254,254)" fill-opacity="0.886275" transform="translate(0,0)"></path>
<path d="M 1238.97 774.796 L 1240.11 775.147 C 1244.8 781.404 1243.06 781.011 1249.03 786.762 C 1255.64 792.588 1252.3 784.959 1253.26 794.544 C 1262.41 802.508 1257.45 806.796 1271.06 805.651 C 1272.44 806.997 1273.68 808.35 1275.01 809.747 C 1264.66 816.593 1272.56 817.412 1279.29 814.357 C 1282.19 817.314 1284.49 819.573 1287.21 822.732 C 1280.06 821.758 1277.75 818.096 1276.86 825.131 L 1276.54 824.898 C 1269.83 820.078 1237.29 780.881 1238.97 774.796 z" fill="rgb(254,254,254)" fill-opacity="0.92549" transform="translate(0,0)"></path>
<path d="M 1233.11 743.492 C 1237.95 754.366 1242.21 762.663 1247.76 773.125 C 1244.24 775.24 1244.14 776.886 1240.11 775.147 L 1238.97 774.796 C 1236.29 772.059 1227.84 752.559 1225.2 747.976 C 1228.65 745.747 1230.24 746.353 1233.11 743.492 z" fill="rgb(254,254,254)" fill-opacity="0.160784" transform="translate(0,0)"></path>
<path d="M 1649.88 787.649 C 1652.5 784.091 1657.35 781.431 1657.54 778.55 C 1658.03 771.052 1662.31 769.977 1665.24 765.02 C 1664.63 766.058 1665.85 760.607 1666.27 759.639 C 1671.48 760.276 1671.64 758.058 1675.11 762.475 C 1673.06 767.319 1668.84 775.627 1665.02 779.481 C 1664.74 779.765 1663.29 779.335 1661.96 781.013 C 1661.84 782.101 1663.04 783.253 1662.51 784.37 C 1661.79 785.874 1660.91 787.268 1660.47 788.882 C 1654.1 789.847 1653.97 792.378 1649.88 787.649 z" fill="rgb(254,254,254)" fill-opacity="0.466667" transform="translate(0,0)"></path>
<path d="M 1325.07 852.337 C 1330.81 855.878 1337.1 859.089 1342.41 862.377 C 1342.73 864.98 1342.4 867.414 1342.73 869.818 C 1342.79 870.219 1345.01 870.346 1344.99 870.261 C 1348.09 870.395 1349.8 872.827 1351.99 874.751 C 1357.22 876.362 1358.2 876.894 1361.7 880.631 C 1357.38 880.494 1332.4 868.99 1329.75 865.751 C 1324.32 856.18 1319.1 861.458 1325.07 852.337 z" fill="rgb(254,254,254)" fill-opacity="0.858824" transform="translate(0,0)"></path>
<path d="M 1529.16 435.087 C 1533.04 436.136 1540.79 439.047 1544.82 440.606 C 1543.52 441.392 1542.06 441.675 1541.33 442.581 L 1541.34 442.524 L 1541.62 443.206 C 1545.01 444.974 1543.77 445.186 1544.59 448.524 C 1544.92 448.292 1545.24 448.061 1545.56 447.829 C 1548.12 448.612 1549.42 450.037 1549.89 452.552 C 1535.36 447.098 1526.7 444.344 1512.04 439.814 C 1518.16 438.021 1522.78 436.483 1529.16 435.087 z" fill="rgb(254,254,254)" fill-opacity="0.913725" transform="translate(0,0)"></path>
<path d="M 1694.45 619.46 C 1696.43 623.984 1697.56 635.379 1697.85 640.704 C 1697.39 640.261 1697.01 639.846 1696.45 639.607 C 1692.26 647.383 1692.02 643.717 1690.89 653.557 C 1690.18 659.782 1689.55 662.354 1689.75 669.034 C 1689.7 670.154 1689.7 671.209 1689.69 672.328 L 1689.36 672.654 C 1689.83 657.094 1686.88 639.833 1687.13 627.604 C 1692.37 623.592 1690.71 625.334 1694.45 619.46 z" fill="rgb(254,254,254)" fill-opacity="0.788235" transform="translate(0,0)"></path>
<path d="M 1636.7 804.87 C 1637.98 811.818 1636.88 809.773 1643.8 811.151 C 1639.9 816.542 1634.58 822.249 1629.76 826.884 C 1627.78 826.944 1617.98 827.729 1620.63 824.071 C 1624.27 819.033 1626.27 823.3 1628.56 814.151 C 1630.48 810.998 1634.08 807.54 1636.7 804.87 z" fill="rgb(254,254,254)" fill-opacity="0.745098" transform="translate(0,0)"></path>
<path d="M 1544.82 440.606 C 1552.87 443.257 1560.05 447.611 1567.59 450.763 C 1570.45 456.257 1567.35 453.378 1572.11 458.998 C 1564.68 456.019 1565.86 452.359 1558.15 456.45 C 1556.14 455.709 1551.8 453.598 1549.89 452.552 C 1549.42 450.037 1548.12 448.612 1545.56 447.829 C 1545.24 448.061 1544.92 448.292 1544.59 448.524 C 1543.77 445.186 1545.01 444.974 1541.62 443.206 L 1541.34 442.524 L 1541.33 442.581 C 1542.06 441.675 1543.52 441.392 1544.82 440.606 z" fill="rgb(254,254,254)" fill-opacity="0.898039" transform="translate(0,0)"></path>
<path d="M 1444.99 890.204 C 1447.09 890.062 1470.36 889.268 1472.43 889.333 C 1479.22 894.228 1485.71 889.637 1490.39 892.107 L 1490.47 892.254 C 1490.07 892.872 1483.77 891.916 1482.45 893.287 C 1482.65 893.077 1477.57 894.247 1477.49 894.261 C 1470.81 895.388 1453.28 898.319 1447.36 896.079 C 1447.72 895.977 1448.86 895.762 1449.2 895.424 L 1448.97 894.991 C 1448.17 894.518 1447.55 894.657 1446.66 894.739 C 1446.32 892.221 1446.79 892.059 1444.99 890.204 z" fill="rgb(254,254,254)" fill-opacity="0.741176" transform="translate(0,0)"></path>
<path d="M 1567.59 450.763 C 1569.37 451.635 1579.02 456.612 1580.08 457.339 C 1578.89 457.142 1577.71 457.771 1577.21 458.873 C 1576.71 459.975 1577.01 461.276 1577.94 462.047 C 1578.87 462.818 1580.21 462.868 1581.19 462.168 C 1582.18 461.468 1582.58 460.193 1582.16 459.057 C 1586.87 460.833 1602.18 471.181 1606.1 474.494 C 1601.85 480.788 1600.97 475.253 1594.18 472.84 C 1590.01 471.362 1575.39 460.086 1572.11 458.998 C 1567.35 453.378 1570.45 456.257 1567.59 450.763 z" fill="rgb(254,254,254)" fill-opacity="0.905882" transform="translate(0,0)"></path>
<path d="M 1665.82 562.891 C 1664.95 552.635 1657.38 549.239 1667.95 545.631 C 1672.83 554.051 1681.78 571.555 1683.94 580.745 C 1679.99 580.121 1678.69 574.326 1676.68 570.69 C 1674.81 562.653 1672.86 557.257 1667.48 566.165 C 1666.47 564.557 1666.49 564.678 1665.82 562.891 z" fill="rgb(254,254,254)" fill-opacity="0.843137" transform="translate(0,0)"></path>
<path d="M 1676.68 570.69 C 1678.69 574.326 1679.99 580.121 1683.94 580.745 C 1688.85 588.925 1683.97 588.316 1686.72 595.793 C 1683.53 596.749 1683.15 597.843 1680.69 600.144 C 1679.49 595.05 1676.52 590.088 1676.49 586.429 C 1678.86 577.082 1671.02 577.575 1676.68 570.69 z" fill="rgb(254,254,254)" fill-opacity="0.411765" transform="translate(0,0)"></path>
<path d="M 1514.36 430.469 C 1519.26 432.114 1524.19 433.654 1529.16 435.087 C 1522.78 436.483 1518.16 438.021 1512.04 439.814 C 1507.59 438.629 1496.37 435.977 1491.9 435.725 C 1498.77 435.319 1496.32 434.56 1502.23 432.519 C 1503.11 432.214 1513.06 430.68 1514.36 430.469 z" fill="rgb(254,254,254)" fill-opacity="0.890196" transform="translate(0,0)"></path>
<path d="M 1680.69 600.144 C 1683.15 597.843 1683.53 596.749 1686.72 595.793 C 1687.74 598.728 1689.34 604.787 1690.35 606.994 L 1690.53 607.072 L 1691.46 606.458 C 1692.54 608.617 1693.04 609.448 1693.83 611.74 C 1690.66 615.469 1689.23 617.675 1685.61 621.743 C 1684.21 614.17 1683.31 607.421 1680.69 600.144 z" fill="rgb(254,254,254)" fill-opacity="0.247059" transform="translate(0,0)"></path>
<path d="M 1426.97 888.934 C 1433.09 888.928 1438.52 889.972 1444.99 890.204 C 1446.79 892.059 1446.32 892.221 1446.66 894.739 C 1447.55 894.657 1448.17 894.518 1448.97 894.991 L 1449.2 895.424 C 1448.86 895.762 1447.72 895.977 1447.36 896.079 C 1437.1 895.666 1433.81 895.557 1423.95 897.318 C 1420.07 896.464 1416.44 895.976 1412.7 894.813 C 1421.07 894.788 1423.97 897.962 1426.97 888.934 z" fill="rgb(254,254,254)" fill-opacity="0.439216" transform="translate(0,0)"></path>
<path d="M 1643.38 796.141 L 1644.14 795.992 C 1649.82 794.833 1650.22 793.81 1654.98 797.294 C 1654.07 798.32 1650.78 802.28 1650.01 801.798 C 1648.17 800.644 1645.51 803.183 1646 804.563 C 1647.37 808.413 1647.44 806.691 1643.8 811.151 C 1636.88 809.773 1637.98 811.818 1636.7 804.87 C 1643.79 803.784 1640.96 801.514 1643.38 796.141 z" fill="rgb(254,254,254)" fill-opacity="0.517647" transform="translate(0,0)"></path>
<path d="M 1689.75 669.034 C 1689.55 662.354 1690.18 659.782 1690.89 653.557 C 1692.02 643.717 1692.26 647.383 1696.45 639.607 C 1697.01 639.846 1697.39 640.261 1697.85 640.704 C 1697.96 644.355 1698.27 648.295 1698.01 651.893 C 1695.09 651.096 1695.66 654.428 1695.41 656.471 C 1694.98 659.969 1691.76 666.289 1689.75 669.034 z" fill="rgb(254,254,254)" fill-opacity="0.568627" transform="translate(0,0)"></path>
<path d="M 1358.12 870.482 C 1361.73 871.66 1367.97 873.804 1371.18 875.641 C 1374.99 881.083 1383.05 877.15 1376.24 886.123 C 1370.92 881.379 1368.82 882.896 1362.57 881.095 C 1365.06 872.037 1363.9 876.016 1358.12 870.482 z" fill="rgb(254,254,254)" fill-opacity="0.141176" transform="translate(0,0)"></path>
<path d="M 1659.64 550.993 C 1660.22 540.32 1648.71 534.569 1663.53 538.627 C 1665.72 541.116 1666.22 542.969 1667.95 545.631 C 1657.38 549.239 1664.95 552.635 1665.82 562.891 C 1664.34 560.126 1660.55 553.521 1659.64 550.993 z" fill="rgb(254,254,254)" fill-opacity="0.937255" transform="translate(0,0)"></path>
<path d="M 1667.48 566.165 C 1672.86 557.257 1674.81 562.653 1676.68 570.69 C 1671.02 577.575 1678.86 577.082 1676.49 586.429 C 1673.53 579.527 1670.48 572.962 1667.48 566.165 z" fill="rgb(254,254,254)" fill-opacity="0.564706" transform="translate(0,0)"></path>
<path d="M 1229.57 732.899 C 1230.56 736.59 1231.94 739.878 1233.11 743.492 C 1230.24 746.353 1228.65 745.747 1225.2 747.976 C 1221.65 740.603 1228.25 743.25 1220.65 735.681 C 1223.67 734.681 1226.68 733.979 1229.57 732.899 z" fill="rgb(254,254,254)" fill-opacity="0.447059" transform="translate(0,0)"></path>
<path d="M 1276.86 825.131 C 1277.75 818.096 1280.06 821.758 1287.21 822.732 C 1289.45 824.127 1293.93 828.606 1295.86 830.606 C 1286.29 834.477 1288.48 827.541 1277.48 825.916 L 1276.86 825.131 z" fill="rgb(254,254,254)" fill-opacity="0.913725" transform="translate(0,0)"></path>
<path d="M 1689.75 669.034 C 1691.76 666.289 1694.98 659.969 1695.41 656.471 C 1695.66 654.428 1695.09 651.096 1698.01 651.893 C 1698.23 657.686 1698.5 662.987 1698.1 668.79 C 1694.43 672.222 1695.12 672.733 1689.69 672.328 C 1689.7 671.209 1689.7 670.154 1689.75 669.034 z" fill="rgb(254,254,254)" fill-opacity="0.443137" transform="translate(0,0)"></path>
<path d="M 1247.76 773.125 C 1249.99 776.813 1252.31 780.439 1254.74 783.999 C 1252.61 784.869 1251.05 785.71 1249.03 786.762 C 1243.06 781.011 1244.8 781.404 1240.11 775.147 C 1244.14 776.886 1244.24 775.24 1247.76 773.125 z" fill="rgb(254,254,254)" fill-opacity="0.368627" transform="translate(0,0)"></path>
<path d="M 1253.26 794.544 C 1257.82 796.171 1257.54 795.609 1262.09 794.307 C 1265.16 798.279 1267.8 801.76 1271.06 805.651 C 1257.45 806.796 1262.41 802.508 1253.26 794.544 z" fill="rgb(254,254,254)" fill-opacity="0.854902" transform="translate(0,0)"></path>
<path d="M 1352.56 867.8 C 1354.78 868.765 1356.07 869.122 1358.12 870.482 C 1363.9 876.016 1365.06 872.037 1362.57 881.095 L 1361.7 880.631 C 1358.2 876.894 1357.22 876.362 1351.99 874.751 C 1352.49 871.686 1353.34 870.754 1352.56 867.8 z" fill="rgb(254,254,254)" fill-opacity="0.243137" transform="translate(0,0)"></path>
<path d="M 1643.38 796.141 C 1645.12 793.847 1648.09 789.551 1649.88 787.649 C 1653.97 792.378 1654.1 789.847 1660.47 788.882 C 1658.2 792.854 1657.51 793.606 1654.98 797.294 C 1650.22 793.81 1649.82 794.833 1644.14 795.992 L 1643.38 796.141 z" fill="rgb(254,254,254)" fill-opacity="0.839216" transform="translate(0,0)"></path>
<path d="M 1254.74 783.999 C 1256.73 786.42 1260.18 791.518 1262.09 794.307 C 1257.54 795.609 1257.82 796.171 1253.26 794.544 C 1252.3 784.959 1255.64 792.588 1249.03 786.762 C 1251.05 785.71 1252.61 784.869 1254.74 783.999 z" fill="rgb(254,254,254)" fill-opacity="0.686275" transform="translate(0,0)"></path>
<path d="M 1491.9 435.725 C 1500.34 423.921 1499.48 428.037 1514.36 430.469 C 1513.06 430.68 1503.11 432.214 1502.23 432.519 C 1496.32 434.56 1498.77 435.319 1491.9 435.725 z" fill="rgb(254,254,254)" fill-opacity="0.788235" transform="translate(0,0)"></path>
<path d="M 1342.41 862.377 L 1343.1 862.734 C 1346.24 864.315 1350.06 865.588 1352.56 867.8 C 1353.34 870.754 1352.49 871.686 1351.99 874.751 C 1349.8 872.827 1348.09 870.395 1344.99 870.261 C 1345.01 870.346 1342.79 870.219 1342.73 869.818 C 1342.4 867.414 1342.73 864.98 1342.41 862.377 z" fill="rgb(254,254,254)" fill-opacity="0.647059" transform="translate(0,0)"></path>
<path d="M 1693.83 611.74 C 1694.01 614.273 1694.17 616.945 1694.45 619.46 C 1690.71 625.334 1692.37 623.592 1687.13 627.604 C 1686.61 625.589 1686.06 623.793 1685.61 621.743 C 1689.23 617.675 1690.66 615.469 1693.83 611.74 z" fill="rgb(254,254,254)" fill-opacity="0.372549" transform="translate(0,0)"></path>
<path d="M 1275.01 809.747 C 1276.47 811.099 1277.98 812.833 1279.29 814.357 C 1272.56 817.412 1264.66 816.593 1275.01 809.747 z" fill="rgb(254,254,254)" fill-opacity="0.780392" transform="translate(0,0)"></path>
<path d="M 1582.16 459.057 C 1582.58 460.193 1582.18 461.468 1581.19 462.168 C 1580.21 462.868 1578.87 462.818 1577.94 462.047 C 1577.01 461.276 1576.71 459.975 1577.21 458.873 C 1577.71 457.771 1578.89 457.142 1580.08 457.339 C 1581.03 457.495 1581.83 458.151 1582.16 459.057 z" fill="rgb(254,254,254)" fill-opacity="0.717647" transform="translate(0,0)"></path>
<path d="M 647.457 856.71 C 678.356 808.706 710.814 761.307 742.051 713.41 L 782.072 653.034 C 795.066 633.286 807.819 611.794 824.487 594.942 C 846.383 572.804 881.591 567.558 904.499 591.222 C 910.959 597.948 915.522 606.264 917.725 615.326 C 921.3 629.571 919.735 679.777 919.44 696.227 C 925.075 689.239 931.626 677.413 937.004 669.407 C 954.049 643.549 971.681 616.38 992.793 593.767 C 1014.39 570.633 1060.05 576.443 1090.24 577.167 C 1091.33 616.797 1091.59 656.366 1093.1 695.936 C 1092.7 704.543 1093.26 714.919 1095.03 723.392 C 1094 730.294 1094.36 774.451 1095.6 781.004 C 1086.54 830.666 1052.7 854.218 1003.88 856.331 L 1003.86 767.052 C 1003.83 747.409 1004.27 724.78 1003.14 705.406 C 986.48 728.869 970.5 755.146 954.48 779.243 C 941.664 798.522 930.611 818.645 914.154 835.226 C 890.654 858.902 870.625 856.364 840.256 856.228 L 840.759 759.312 C 840.783 742.596 841.427 719.89 839.968 703.955 C 827.435 721.07 814.417 742.334 802.775 760.309 C 782.07 792.444 761.065 824.386 739.764 856.128 C 708.999 856.75 678.227 856.944 647.457 856.71 z" fill="rgb(126,128,134)" transform="translate(0,0)"></path>
<path d="M 1554.32 0 L 1644.51 0 L 1461.58 262.692 C 1429.57 308.903 1397 357.903 1364.31 403.378 C 1353.03 407.983 1339.98 412.772 1329.22 417.927 C 1304.51 429.768 1267.09 455.197 1249.8 476.534 C 1247.09 479.372 1244.73 481.773 1242.16 484.764 C 1239.29 488.59 1237.56 490.302 1234.57 493.845 C 1232.43 496.593 1230.76 499.743 1228.46 502.36 C 1227.79 502.757 1227.28 503.364 1227 504.086 C 1224.21 506.93 1222.79 509.675 1220.35 512.407 C 1216.92 518.314 1216.75 518.666 1213.03 523.989 C 1181.64 576.839 1175.19 619.046 1175.05 678.621 C 1165.8 691.198 1112.61 771.442 1107.1 775.151 L 1104 774.112 L 1105.99 773.085 C 1107.3 766.614 1104.54 706.997 1103.44 697.806 C 1104.3 693.104 1103.73 680.367 1103.18 675.488 L 1103.13 655.953 L 1383.1 248.99 C 1424.48 190.028 1465.39 130.74 1505.83 71.1323 C 1520.37 49.6608 1541.86 21.5072 1554.32 0 z" fill="rgb(126,128,134)" transform="translate(0,0)"></path>
<path d="M 1390 0 L 1479.56 0 C 1439.15 61.4682 1392.65 126.029 1350.65 187.007 L 1113.61 531.049 C 1085.33 531.277 1053.73 532.208 1025.7 531.164 L 1390 0 z" fill="rgb(126,128,134)" transform="translate(0,0)"></path>
<path d="M 939.461 886.87 C 951.074 886.207 963.75 886.133 975.431 886.499 C 993.034 887.05 1011.23 886.114 1028.73 886.833 L 720.832 1331 L 632.379 1331 L 801.576 1086.35 L 878.951 973.791 C 898.804 944.819 918.664 915.104 939.461 886.87 z" fill="rgb(126,128,134)" transform="translate(0,0)"></path>
<path d="M 777.488 886.553 C 789.824 885.649 806.375 886.043 818.97 886.12 C 834.043 886.213 850.171 885.778 865.071 886.202 L 651.816 1197.1 L 591.186 1285.2 C 583.032 1297.09 567.036 1319.16 560.721 1331 L 470.852 1331 C 487.033 1306.78 504.202 1282.88 520.708 1258.79 L 651.371 1068.69 L 731.137 953.653 C 746.241 931.777 761.637 907.888 777.488 886.553 z" fill="rgb(126,128,134)" transform="translate(0,0)"></path>
<path d="M 1881.19 0 L 1968.1 0 C 1953.64 23.2719 1933.36 49.9388 1917.55 73.0548 L 1711.39 373.361 C 1704.78 382.962 1652.01 460.982 1648.6 463.208 C 1646.76 463.805 1644.93 464.446 1643.12 465.132 L 1640.75 464.486 C 1638.36 454.978 1631.08 456.179 1630.27 448.553 C 1626.37 444.669 1613.49 436.067 1608.33 433.355 C 1606.94 431.945 1605.11 431.048 1603.46 429.981 C 1601.92 428.899 1600.84 428.133 1599.01 427.715 C 1596.12 425.822 1593.87 424.214 1590.73 422.685 C 1596.38 412.17 1620.45 378.554 1627.93 367.855 L 1685.92 283.29 L 1791.83 130.019 C 1820.83 87.606 1851.07 41.3838 1881.19 0 z" fill="rgb(126,128,134)" transform="translate(0,0)"></path>
<path d="M 1630.27 448.553 C 1636.67 452.999 1642.53 458.349 1648.6 463.208 C 1646.76 463.805 1644.93 464.446 1643.12 465.132 L 1640.75 464.486 C 1638.36 454.978 1631.08 456.179 1630.27 448.553 z" fill="rgb(254,254,254)" transform="translate(0,0)"></path>
<path d="M 958.773 1331 C 999.46 1269.11 1045.47 1205.28 1087.62 1143.88 L 1203.68 975.222 C 1226.65 941.682 1249.66 908.098 1272.47 874.451 C 1273.78 872.51 1273.86 872.416 1275.93 871.617 C 1280.68 875.68 1299.09 890.726 1304.15 890.371 C 1313.83 898.65 1325.82 903.637 1336.75 909.883 C 1289.25 976.91 1243.94 1045.53 1197.07 1112.86 C 1164.97 1158.66 1133.26 1204.72 1101.92 1251.05 C 1084.19 1276.86 1064 1304.77 1047.25 1331 L 958.773 1331 z" fill="rgb(126,128,134)" transform="translate(0,0)"></path>
<path d="M 1450.84 388.623 C 1474.22 389.063 1509.57 392.394 1531.94 399.741 C 1526.08 400.002 1516.85 400.141 1511.31 401.058 L 1523.69 408.429 C 1493.52 401.785 1480.97 400.441 1450.34 399.404 C 1449.97 396.948 1449.65 394.485 1449.39 392.016 L 1450.84 388.623 z" fill="rgb(254,254,254)" fill-opacity="0.941176" transform="translate(0,0)"></path>
<path d="M 1103.44 697.806 C 1104.54 706.997 1107.3 766.614 1105.99 773.085 L 1104 774.112 L 1101.9 772.304 C 1098.91 773.643 1098.4 777.712 1095.6 781.004 C 1094.36 774.451 1094 730.294 1095.03 723.392 C 1095.24 721.26 1095.41 718.025 1095.85 716.073 L 1096.32 715.795 L 1096.35 715.639 C 1097.83 716.528 1095.73 719.5 1098.4 720.725 C 1102.31 718.41 1100.73 706.884 1103.44 697.806 z" fill="rgb(254,254,254)" fill-opacity="0.905882" transform="translate(0,0)"></path>
<path d="M 1608.33 433.355 C 1613.49 436.067 1626.37 444.669 1630.27 448.553 C 1631.08 456.179 1638.36 454.978 1640.75 464.486 C 1639.95 464.793 1638.91 465.085 1638.31 465.592 C 1638.03 466.458 1638.44 468.445 1637.4 468.685 C 1636.6 468.247 1622.36 456.628 1621.81 455.872 C 1621.94 446.346 1617.01 449.354 1611.81 442.66 C 1618.35 439.072 1609.43 438.721 1608.33 433.355 z" fill="rgb(254,254,254)" fill-opacity="0.92549" transform="translate(0,0)"></path>
<path d="M 1286.05 867.708 C 1288.02 867.221 1305.38 879.148 1306.22 880.559 C 1305.59 881.023 1304.85 880.639 1304.01 880.653 C 1302.44 880.68 1300.25 879.928 1298.79 880.868 C 1298.67 880.987 1298.55 881.106 1298.44 881.225 C 1298.38 881.262 1298.33 881.298 1298.28 881.334 C 1297.67 881.867 1297.88 881.616 1297.58 882.449 C 1298.04 884.344 1302.1 887.046 1303.92 888.986 L 1304.15 890.371 C 1299.09 890.726 1280.68 875.68 1275.93 871.617 C 1280.52 870.317 1281.67 869.682 1286.05 867.708 z" fill="rgb(254,254,254)" fill-opacity="0.858824" transform="translate(0,0)"></path>
<path d="M 1228.46 502.36 C 1230.76 499.743 1232.43 496.593 1234.57 493.845 C 1237.62 500.449 1237.71 498.037 1245.52 497.621 C 1238.01 508.161 1231.8 515.359 1224.58 526.935 C 1216.57 517.132 1234.28 519.231 1220.35 512.407 C 1222.79 509.675 1224.21 506.93 1227 504.086 C 1226.38 505.676 1227 507.482 1228.46 508.356 C 1229.93 509.23 1231.81 508.916 1232.92 507.613 C 1234.02 506.31 1234.02 504.4 1232.91 503.098 C 1231.81 501.797 1229.93 501.484 1228.46 502.36 z" fill="rgb(254,254,254)" fill-opacity="0.67451" transform="translate(0,0)"></path>
<path d="M 1103.18 675.488 C 1103.73 680.367 1104.3 693.104 1103.44 697.806 C 1100.73 706.884 1102.31 718.41 1098.4 720.725 C 1095.73 719.5 1097.83 716.528 1096.35 715.639 L 1096.32 715.795 L 1095.85 716.073 C 1095.41 718.025 1095.24 721.26 1095.03 723.392 C 1093.26 714.919 1092.7 704.543 1093.1 695.936 C 1093.41 697.632 1094.33 707.268 1094.89 707.617 C 1096.31 707.433 1096.65 703.556 1096.66 702.505 C 1096.69 699.983 1100.94 697.166 1102.93 695.585 C 1102.94 688.774 1102.8 682.301 1103.18 675.488 z" fill="rgb(254,254,254)" fill-opacity="0.396078" transform="translate(0,0)"></path>
<path d="M 1242.16 484.764 C 1246.32 489.893 1246.64 486.974 1253.01 488.872 C 1250.01 492.545 1248.74 493.059 1245.52 497.621 C 1237.71 498.037 1237.62 500.449 1234.57 493.845 C 1237.56 490.302 1239.29 488.59 1242.16 484.764 z" fill="rgb(254,254,254)" fill-opacity="0.509804" transform="translate(0,0)"></path>
<path d="M 1220.35 512.407 C 1234.28 519.231 1216.57 517.132 1224.58 526.935 C 1223.59 528.561 1222.67 529.843 1221.58 531.4 C 1217.89 528.472 1216.85 525.928 1213.03 523.989 C 1216.75 518.666 1216.92 518.314 1220.35 512.407 z" fill="rgb(254,254,254)" fill-opacity="0.52549" transform="translate(0,0)"></path>
<path d="M 1242.16 484.764 C 1244.73 481.773 1247.09 479.372 1249.8 476.534 C 1252.87 478.574 1256.17 480.261 1258.72 482.689 C 1256.81 484.812 1254.89 486.676 1253.01 488.872 C 1246.64 486.974 1246.32 489.893 1242.16 484.764 z" fill="rgb(254,254,254)" fill-opacity="0.258824" transform="translate(0,0)"></path>
<path d="M 1599.01 427.715 C 1600.84 428.133 1601.92 428.899 1603.46 429.981 C 1605.66 434.299 1606.95 434.206 1603.82 437.886 C 1597.28 433.931 1596.56 429.44 1588.05 434.161 C 1586.61 433.454 1586.27 433.214 1585.01 432.297 C 1592.91 426.638 1593.53 434.404 1599.01 427.715 z" fill="rgb(254,254,254)" fill-opacity="0.717647" transform="translate(0,0)"></path>
<path d="M 1590.73 422.685 C 1593.87 424.214 1596.12 425.822 1599.01 427.715 C 1593.53 434.404 1592.91 426.638 1585.01 432.297 L 1583.07 431.194 C 1585.67 428.092 1587.91 425.615 1590.73 422.685 z" fill="rgb(254,254,254)" fill-opacity="0.427451" transform="translate(0,0)"></path>
<path d="M 1603.46 429.981 C 1605.11 431.048 1606.94 431.945 1608.33 433.355 C 1609.43 438.721 1618.35 439.072 1611.81 442.66 C 1607.86 440.841 1606 438.755 1603.82 437.886 C 1606.95 434.206 1605.66 434.299 1603.46 429.981 z" fill="rgb(254,254,254)" fill-opacity="0.858824" transform="translate(0,0)"></path>
<path d="M 1228.46 502.36 C 1229.93 501.484 1231.81 501.797 1232.91 503.098 C 1234.02 504.4 1234.02 506.31 1232.92 507.613 C 1231.81 508.916 1229.93 509.23 1228.46 508.356 C 1227 507.482 1226.38 505.676 1227 504.086 C 1227.28 503.364 1227.79 502.757 1228.46 502.36 z" fill="rgb(254,254,254)" fill-opacity="0.521569" transform="translate(0,0)"></path>
<metadata><recraft-signature>{"signed_by": "recraft", "signature_b64": "G2TWuYOhRj5hzR/d/YqdzCqDiZchM5fRg4qCrxdEf0JerTJNxk1/lv5w9poYTcFA53tw6Dk6ygB2LnBt5lJLBQ==", "signing_algo": "Ed25519", "generation_timestamp": 1781563718, "identifier": "47c31b73-07c6-450d-8680-797df147a3bf"}</recraft-signature></metadata></svg>